<svg id="visual" viewBox="0 0 900 600" width="900" height="600" xmlns="http://www.w3.org/2000/svg" xmlns:xlink="http://www.w3.org/1999/xlink" version="1.1"><rect x="0" y="0" width="900" height="600" fill="#3f9ee6"></rect><path d="M0 384L18.8 375C37.7 366 75.3 348 112.8 337.3C150.3 326.7 187.7 323.3 225.2 321.3C262.7 319.3 300.3 318.7 337.8 329.5C375.3 340.3 412.7 362.7 450.2 360.8C487.7 359 525.3 333 562.8 332C600.3 331 637.7 355 675.2 368.7C712.7 382.3 750.3 385.7 787.8 375.2C825.3 364.7 862.7 340.3 881.3 328.2L900 316L900 601L881.3 601C862.7 601 825.3 601 787.8 601C750.3 601 712.7 601 675.2 601C637.7 601 600.3 601 562.8 601C525.3 601 487.7 601 450.2 601C412.7 601 375.3 601 337.8 601C300.3 601 262.7 601 225.2 601C187.7 601 150.3 601 112.8 601C75.3 601 37.7 601 18.8 601L0 601Z" fill="#4ce1c0"></path><path d="M0 388L18.8 383.3C37.7 378.7 75.3 369.3 112.8 363.3C150.3 357.3 187.7 354.7 225.2 359.7C262.7 364.7 300.3 377.3 337.8 384.7C375.3 392 412.7 394 450.2 398C487.7 402 525.3 408 562.8 402.2C600.3 396.3 637.7 378.7 675.2 383.7C712.7 388.7 750.3 416.3 787.8 416.8C825.3 417.3 862.7 390.7 881.3 377.3L900 364L900 601L881.3 601C862.7 601 825.3 601 787.8 601C750.3 601 712.7 601 675.2 601C637.7 601 600.3 601 562.8 601C525.3 601 487.7 601 450.2 601C412.7 601 375.3 601 337.8 601C300.3 601 262.7 601 225.2 601C187.7 601 150.3 601 112.8 601C75.3 601 37.7 601 18.8 601L0 601Z" fill="#88c067"></path><path d="M0 405L18.8 413C37.7 421 75.3 437 112.8 451.5C150.3 466 187.7 479 225.2 472.8C262.7 466.7 300.3 441.3 337.8 430.8C375.3 420.3 412.7 424.7 450.2 431.5C487.7 438.3 525.3 447.7 562.8 453.2C600.3 458.7 637.7 460.3 675.2 460.8C712.7 461.3 750.3 460.7 787.8 455C825.3 449.3 862.7 438.7 881.3 433.3L900 428L900 601L881.3 601C862.7 601 825.3 601 787.8 601C750.3 601 712.7 601 675.2 601C637.7 601 600.3 601 562.8 601C525.3 601 487.7 601 450.2 601C412.7 601 375.3 601 337.8 601C300.3 601 262.7 601 225.2 601C187.7 601 150.3 601 112.8 601C75.3 601 37.7 601 18.8 601L0 601Z" fill="#b6952d"></path><path d="M0 480L18.8 481.3C37.7 482.7 75.3 485.3 112.8 492.7C150.3 500 187.7 512 225.2 510.3C262.7 508.7 300.3 493.3 337.8 483.5C375.3 473.7 412.7 469.3 450.2 466.2C487.7 463 525.3 461 562.8 471.2C600.3 481.3 637.7 503.7 675.2 513.5C712.7 523.3 750.3 520.7 787.8 514.2C825.3 507.7 862.7 497.3 881.3 492.2L900 487L900 601L881.3 601C862.7 601 825.3 601 787.8 601C750.3 601 712.7 601 675.2 601C637.7 601 600.3 601 562.8 601C525.3 601 487.7 601 450.2 601C412.7 601 375.3 601 337.8 601C300.3 601 262.7 601 225.2 601C187.7 601 150.3 601 112.8 601C75.3 601 37.7 601 18.8 601L0 601Z" fill="#d05e38"></path><path d="M0 513L18.8 522.2C37.7 531.3 75.3 549.7 112.8 549.3C150.3 549 187.7 530 225.2 526.5C262.7 523 300.3 535 337.8 542.7C375.3 550.3 412.7 553.7 450.2 551.2C487.7 548.7 525.3 540.3 562.8 542.2C600.3 544 637.7 556 675.2 559.7C712.7 563.3 750.3 558.7 787.8 554C825.3 549.3 862.7 544.7 881.3 542.3L900 540L900 601L881.3 601C862.7 601 825.3 601 787.8 601C750.3 601 712.7 601 675.2 601C637.7 601 600.3 601 562.8 601C525.3 601 487.7 601 450.2 601C412.7 601 375.3 601 337.8 601C300.3 601 262.7 601 225.2 601C187.7 601 150.3 601 112.8 601C75.3 601 37.7 601 18.8 601L0 601Z" fill="#c62368"></path></svg>